<svg id="Layer_1" data-name="Layer 1" xmlns="http://www.w3.org/2000/svg" viewBox="0 0 1106.95 207.54"><defs><style>.cls-1{fill:#f05454;}</style></defs><circle class="cls-1" cx="103.77" cy="103.77" r="103.77"/><path d="M374.19,55.46v97.17h-27V99l-18.33,53.62H306.23l-18.47-54v54h-27V55.46h32.67l24.4,63.13,23.85-63.13Z"/><path d="M416.09,55.46v56.37q0,7.86,3.65,12.13t11.1,4.28q7.44,0,11.24-4.35t3.79-12.06V55.46h27v56.37q0,13.38-5.65,22.82a36.09,36.09,0,0,1-15.37,14.19,48.43,48.43,0,0,1-21.57,4.76,45.84,45.84,0,0,1-21.16-4.76,34.63,34.63,0,0,1-14.61-14.12q-5.31-9.37-5.31-22.89V55.46Z"/><path d="M496.59,145.54q-10.89-8.07-11.72-23.09h28.81q.42,5.1,3,7.44a11,11,0,0,0,12.88.48A6.16,6.16,0,0,0,532,125.2a7.32,7.32,0,0,0-4-6.61,70.9,70.9,0,0,0-13-5.24,117.36,117.36,0,0,1-15.37-6.13,29.49,29.49,0,0,1-10.2-8.69q-4.33-5.72-4.34-15a27.23,27.23,0,0,1,4.69-16.06,28.9,28.9,0,0,1,13-10.13,48.32,48.32,0,0,1,18.75-3.45q17,0,27.09,7.93t10.82,22.26H530.09c-.1-2.94-1-5.15-2.69-6.62a9.67,9.67,0,0,0-6.55-2.21,7,7,0,0,0-5,1.8A6.59,6.59,0,0,0,514,82.2,6.29,6.29,0,0,0,516.09,87a19.73,19.73,0,0,0,5.31,3.45q3.17,1.44,9.37,3.65A117.27,117.27,0,0,1,546,100.32,31.19,31.19,0,0,1,556.34,109q4.35,5.58,4.35,14.13a28.56,28.56,0,0,1-4.35,15.57A29.7,29.7,0,0,1,543.8,149.6q-8.2,4-19.37,4Q507.48,153.6,496.59,145.54Z"/><path d="M600.25,55.46v97.17h-27V55.46Z"/><path d="M618.37,78.27a43.11,43.11,0,0,1,17-17.51,50.39,50.39,0,0,1,25.36-6.27q18.19,0,30.6,9.72t16,26.4H678.26A19.4,19.4,0,0,0,671,82.2a19.69,19.69,0,0,0-10.68-2.9q-9.37,0-15,6.69t-5.58,17.85q0,11.3,5.58,18t15,6.68A19.69,19.69,0,0,0,671,125.62a19.45,19.45,0,0,0,7.23-8.41h29.09q-3.58,16.68-16,26.4t-30.6,9.71a50.39,50.39,0,0,1-25.36-6.27,43,43,0,0,1-17-17.5,53.73,53.73,0,0,1-6-25.71A53.42,53.42,0,0,1,618.37,78.27Z"/><path d="M819.21,103.91a29.54,29.54,0,0,1-12.27,11.58q-8.21,4.33-20.06,4.34H773.51v32.8h-27V55.46h40.39q11.72,0,19.92,4.13A28.46,28.46,0,0,1,819.14,71a33.63,33.63,0,0,1,4.13,16.82A32.35,32.35,0,0,1,819.21,103.91ZM795.7,87.85q0-10.62-11.44-10.62H773.51V98.32h10.75Q795.71,98.32,795.7,87.85Z"/><path d="M855.66,147.19a47.66,47.66,0,0,1-18.12-17.78,49.74,49.74,0,0,1-6.69-25.71A49.74,49.74,0,0,1,837.54,78a47.2,47.2,0,0,1,18.12-17.71,53,53,0,0,1,50.25,0,46.91,46.91,0,0,1,18,17.71,50.08,50.08,0,0,1,6.62,25.71,50.08,50.08,0,0,1-6.62,25.71,47.27,47.27,0,0,1-18,17.78,52.31,52.31,0,0,1-50.18,0Zm41.42-25.43q6-6.75,6-18.06,0-11.58-6-18.26t-16.33-6.69q-10.47,0-16.4,6.69t-5.93,18.26q0,11.44,5.93,18.13t16.4,6.68Q891.09,128.51,897.08,121.76Z"/><path d="M991.85,152.63l-19.3-35.83h-2.89v35.83h-27V55.46h42.59q11.71,0,19.85,4.06a28.54,28.54,0,0,1,12.27,11.17,31,31,0,0,1,4.14,15.92,29,29,0,0,1-5.45,17.44q-5.44,7.5-15.92,10.68l21.92,37.9ZM969.66,98.32H983q5.51,0,8.27-2.61c1.84-1.75,2.75-4.28,2.75-7.59a9.7,9.7,0,0,0-2.82-7.37q-2.84-2.69-8.2-2.69H969.66Z"/><path d="M1107,55.46V77H1081v75.67h-27V77h-25.63V55.46Z"/></svg>